<svg width="872" height="761" xmlns="http://www.w3.org/2000/svg" xmlns:xlink="http://www.w3.org/1999/xlink">
    <defs>
        <path d="M45.058 57.4c-5.125-15.562-7.687-27.763-7.687-36.604 0-3.623 1.412-10.628 0-13.594C33.614-.687 21.647.016 18.969.016 15.284.016 0 6.733 0 13.031c0 2.54 7.254 6.676 7.254 16.996 0 3.414 4.339 1.582 6.955 3.645 2.063 1.626 3.441 4.423 9.15 4.423 3.805 0 4.522 9.744 2.151 29.232l19.548-9.928z" id="f"/>
        <path d="M35.35 61.523c-8.713-17.528-13.507-27.336-14.382-29.424-.111-.266-6.713-.994-7.624-2.025-.911-1.032-13.975-1.422-13.32-3.624.618-2.077 11.49.343 13.32-2.117C15.007 22.098 1.326 6.075 5.08 5.48c3.755-.595 8.664 12.507 9.92 9.824.543-1.158-4.41-14.324-2.326-15.225 3.17-1.371 5.128 15.84 7.517 16.123 1.426.168-.094-10.722 2.088-10.722 2.181 0 1.224 10.452 1.965 12.622.137.403.669 1.123 1.369.524 1.333-1.14.487-8.288 2.671-7.36.97 1.088 0 12.557 0 14.82s1.137 4.188 1.626 5.002C36.07 41.329 49.68 57.994 49.68 57.994L35.35 61.523z" id="h"/>
        <path d="M30.05 11.098C11.134 48.952 1.118 70.902 0 76.946c.909 4.316.237 5.527 10.88 11.716 2.946 1.075 13.19 10.884 16.056 8.85 1.045-.743.5-9.365 0-11.746-1.537-7.31 2.132-9.16 5.306-13.897C39.462 61.09 46.725 48.674 54.42 45.46c2.319-.046.782 18.686-4.612 56.193l.926 57.583c5.08 3.595 12.785 3.595 23.118 0 3.458-6.403 1.131-30.097 3.617-57.583 2.373-26.246 9.618-56.244 10.47-65.805C89.1 22.801 91.365 10.852 94.736 0L30.049 11.098z" id="j"/>
        <path d="M63.089 22.144C26.476 48.495 6.094 61.67 1.943 61.67c-4.15 0-1.652 4.883 7.498 14.648 36.372-16.76 54.558-23.73 54.558-20.91 0 1.874 6.106 9.891 5.267 22.814-1.055 16.246-8.662 40.26-12.383 42.959-.958 4.903 25.377 15.1 39.262 9.533 13.884-5.567 21.46-12.998 31.313-15.95 2.236-5.81.019-26.64.34-44.31.288-15.893 4.856-33.083 7.223-38.272 4.998-10.96 10.367-33.826 0-28.452-2.868 0-6.672-2.964-9.23-3.731-3.948 0-13.083 2.666-25.673 8.21-2.877 1.268-3.64 10.404-7.093 11.75-2.496.974-4.083-8.024-8.578-6.746-3.36.956-10.48 3.932-21.358 8.93z" id="l"/>
        <path d="M17.294 2.148c-8.08 4.426-24.687 28.63-13.59 28.63 11.098 0 15.237-8.27 20.248-8.27 5.011 0 7.095 7.152 9.632 4.762 2.537-2.39 12.53-6.136 9.242 3.509-2.192 6.43-1.063 7.99 3.387 4.68.022-11.267-1.107-19.97-3.387-26.109C39.406.142 25.374-2.278 17.294 2.148z" id="n"/>
        <path d="M39.84 59.157c-3.294-6.645-4.72-11.635-4.276-14.97.683-5.125 4.579-11.01 5.344-15.386 2.445-13.981 1.404-22.555-2.156-24.703-8.645-5.214-30.178 5.354-30.16 14.314.02 8.96 6.024 8.935-.425 18.116-.489 1.326.212 2.24 2.103 2.742 1.455.633 2.186 2.615 2.193 5.946.007 3.33 3.38 4.494 10.118 3.49 1.203 6.235-3.215 10.45-13.255 12.645-8.954 1.443 7.837 14.986 7.837 14.986l22.678-17.18z" id="t"/>
        <path d="M47.138.654C38.266 4.903 4.095 53.26 1.508 68.638c-.783 3.949-2.45 2.799-.813 5.035 1.34.724 4.815 2.153 10.42 4.287-.223 1.084.806-.345 3.087-4.287C18.455 69.46 25.94 61.39 36.657 49.462c1.304-9.039 3.23-14.658 5.777-16.857 3.821-3.298 11.685-2.045 13.589-2.37 28.207 12.938 46.111 24.928 49.084 24.928 4.661 0 13.86-17.698 6.503-36.103-5.73-5.011-55.6-22.654-64.472-18.406z" id="v"/>
        <path d="M7.956 82.492c-2.428 20.361-4.766 39.061-7.012 56.1-3.37 25.559 3.37 29.656 3.37 21.49 0-8.165 5.065-18.126 9.786-23.777 4.722-5.651 46.6-4.877 55.444-13.446 8.844-8.568 7.62-7.869 7.604-19.252-.015-11.383-11.76-19.95-10.089-44.96 1.67-25.008 5.942-27.453 8.407-39.926C78.3 9.43 67.024 0 58.594 0 53.791 3.3 49.481 9.103 46.5 12.327c-5.553 6.004-13.382.44-13.382-6.422 0-.701-4.768-.455-6.63 3.568-3.48 7.519-8.104 14.29-8.746 23.558-.777 11.225 9.856 19.836 9.5 40.19.404 8.823-6.025 11.914-19.286 9.27z" id="x"/>
        <path d="M7.956 82.492c-2.428 20.361-4.766 39.061-7.012 56.1-3.37 25.559 3.37 29.656 3.37 21.49 0-8.165 5.065-18.126 9.786-23.777 4.722-5.651 46.6-4.877 55.444-13.446 8.844-8.568 7.62-7.869 7.604-19.252-.015-11.383-11.76-19.95-10.089-44.96 1.67-25.008 5.942-27.453 8.407-39.926C78.3 9.43 67.024 0 58.594 0 53.791 3.3 49.481 9.103 46.5 12.327c-5.553 6.004-13.382.44-13.382-6.422 0-.701-4.768-.455-6.63 3.568-3.48 7.519-8.104 14.29-8.746 23.558-.777 11.225 9.856 19.836 9.5 40.19.404 8.823-6.025 11.914-19.286 9.27z" id="y"/>
        <path d="M51.679 2.647c-4.128 25.869-8.468 40.346-13.02 43.43-1.924 1.303-16.697 4.418-22.137 4.385-2.5-.015-2.642-1.903-3.359-1.903-.865 0-14.086 4.262-13.112 5.846.505.991.846.564 3.956 1.577 1.015.33 2.433 1.487 4.252 3.468 4.252-.579 7.006-.916 8.263-1.012 7.39-.564 13.585-1.156 16.68-1.45 3.287-.312 8.117-.744 10.356-1.006 6.207-.727 14.743-15.807 25.609-45.24 1.87-1.867.517-4.565-4.057-8.095-4.574-3.53-9.051-3.53-13.431 0z" id="A"/>
        <filter x="-85.7%" y="-85.7%" width="271.4%" height="271.4%" filterUnits="objectBoundingBox" id="a">
            <feGaussianBlur stdDeviation="44" in="SourceGraphic"/>
        </filter>
        <filter x="-100%" y="-64%" width="300%" height="228%" filterUnits="objectBoundingBox" id="b">
            <feGaussianBlur stdDeviation="35" in="SourceGraphic"/>
        </filter>
        <filter x="-88.5%" y="-97.1%" width="277.1%" height="294.1%" filterUnits="objectBoundingBox" id="c">
            <feGaussianBlur stdDeviation="44" in="SourceGraphic"/>
        </filter>
        <filter x="-79.5%" y="-79.5%" width="259%" height="259%" filterUnits="objectBoundingBox" id="d">
            <feGaussianBlur stdDeviation="44" in="SourceGraphic"/>
        </filter>
        <filter x="-72.4%" y="-65.1%" width="244.9%" height="230.1%" filterUnits="objectBoundingBox" id="e">
            <feGaussianBlur stdDeviation="36" in="SourceGraphic"/>
        </filter>
        <filter x="0%" y="0%" width="100%" height="100%" filterUnits="objectBoundingBox" id="p">
            <feGaussianBlur in="SourceGraphic"/>
        </filter>
        <filter x="0%" y="0%" width="100%" height="100%" filterUnits="objectBoundingBox" id="q">
            <feGaussianBlur in="SourceGraphic"/>
        </filter>
        <ellipse id="r" cx="51.5" cy="36" rx="51.5" ry="36"/>
    </defs>
    <g fill="none" fill-rule="evenodd">
        <path d="m163.929 395.515 2.03-.015h38.16l2.03.015 1.941.03 1.856.046 1.775.06 1.695.076.82.043 1.583.098 1.513.112 1.445.127 1.382.142c.675.075 1.327.155 1.958.24l1.235.178c.604.093 1.189.191 1.755.294l1.109.215c.543.11 1.069.226 1.58.348l1.003.25c.164.042.327.085.488.13l.949.27.917.285.889.299.863.312c.142.054.283.107.423.162l.831.333.41.172.806.354.794.368.784.38 1.167.598.388.205c7.496 4.01 13.38 9.893 17.389 17.39l.607 1.164.387.781.375.789.36.8c.06.134.118.269.176.405l.34.822c.056.138.11.278.165.418l.32.851.154.435.299.889.285.917.27.95c.044.16.088.323.13.487l.25 1.003c.122.51.238 1.037.348 1.58l.214 1.109c.104.566.202 1.15.295 1.754l.178 1.235c.057.421.111.852.163 1.292l.15 1.35.134 1.413.12 1.479.105 1.548.047.8.083 1.658.068 1.734.052 1.815c.008.31.015.622.021.939l.03 1.941.016 2.03v38.16l-.015 2.03-.03 1.941-.046 1.856-.06 1.775-.076 1.695-.043.82-.098 1.583-.112 1.513-.127 1.445-.142 1.382a80.292 80.292 0 0 1-.24 1.959l-.178 1.235c-.093.604-.191 1.188-.295 1.754l-.214 1.109c-.11.543-.226 1.07-.348 1.58l-.25 1.003c-.042.164-.086.327-.13.488l-.27.95-.285.916-.299.889-.313.863a39.97 39.97 0 0 1-.161.423l-.333.832a41.37 41.37 0 0 1-.172.408l-.354.807-.368.794-.38.784-.598 1.167-.205.388c-4.01 7.496-9.893 13.38-17.39 17.389l-1.164.607-.781.388-.79.374-.799.36c-.134.06-.27.118-.405.176l-.822.34c-.138.056-.278.11-.418.165l-.852.32c-.143.052-.288.103-.434.154l-.889.3-.917.284-.95.27c-.16.045-.323.088-.487.13l-1.003.25c-.511.122-1.037.238-1.58.348l-1.11.215c-.565.103-1.15.201-1.754.294l-1.235.178c-.42.057-.85.111-1.29.164l-1.351.149-1.413.134-1.479.12-1.548.105-.8.047-1.658.083-1.735.068-1.814.053-.939.02-1.941.03-2.03.016h-38.16l-2.03-.015-1.941-.03-1.857-.046-1.774-.06-1.695-.076-.82-.043-1.583-.098-1.513-.112-1.446-.127-1.381-.142a80.292 80.292 0 0 1-1.959-.24l-1.235-.178a62.425 62.425 0 0 1-1.754-.294l-1.11-.215c-.542-.11-1.068-.226-1.58-.348l-1.003-.25a44.533 44.533 0 0 1-.487-.13l-.95-.27-.917-.285-.888-.299-.863-.312a39.97 39.97 0 0 1-.423-.162l-.832-.333a41.37 41.37 0 0 1-.409-.172l-.806-.354-.794-.368-.785-.38-1.166-.598-.388-.205c-7.496-4.01-13.38-9.893-17.389-17.39l-.607-1.164-.388-.781-.374-.789-.36-.8c-.06-.134-.118-.269-.176-.405l-.34-.822a40.27 40.27 0 0 1-.165-.418l-.32-.851a39.95 39.95 0 0 1-.154-.435l-.3-.889-.284-.917-.27-.95a44.533 44.533 0 0 1-.131-.487l-.25-1.003a50.605 50.605 0 0 1-.348-1.58l-.214-1.109a62.425 62.425 0 0 1-.294-1.754l-.178-1.235c-.057-.421-.112-.852-.164-1.292l-.149-1.35-.134-1.413-.12-1.479-.105-1.548c-.017-.264-.032-.53-.047-.8l-.083-1.658-.068-1.734-.053-1.815-.02-.939-.031-1.941-.015-2.03v-38.16l.015-2.03.03-1.941.046-1.856.06-1.775.076-1.695c.013-.276.028-.55.043-.82l.097-1.583.113-1.513.127-1.445.142-1.382c.074-.675.154-1.327.24-1.959l.178-1.235c.093-.604.19-1.188.294-1.754l.214-1.109c.111-.543.227-1.07.348-1.58l.25-1.003c.043-.164.086-.327.13-.488l.271-.95.285-.916.299-.889.312-.863c.053-.142.107-.283.162-.423l.333-.832c.057-.137.114-.273.172-.408l.354-.807.367-.794.381-.784.597-1.167.206-.388c4.01-7.496 9.893-13.38 17.39-17.389l1.164-.607.78-.388.79-.374.8-.36c.134-.06.269-.118.404-.176l.823-.34c.138-.056.277-.11.418-.165l.851-.32.435-.154.888-.3.918-.284.949-.27c.16-.045.323-.088.487-.13l1.003-.25a50.605 50.605 0 0 1 1.58-.348l1.11-.215c.566-.103 1.15-.201 1.754-.294l1.235-.178c.421-.057.851-.111 1.291-.164l1.35-.149 1.414-.134 1.479-.12 1.548-.105.8-.047 1.658-.083 1.734-.068 1.815-.053.939-.02 1.941-.03z" fill="#ED9B1C" opacity=".2" filter="url(#a)" transform="translate(108.961 79.5)"/>
        <path d="m519.146 343.516 1.384-.016h26.018l1.384.016 1.324.032 1.265.049 1.21.064 1.156.08.559.046 1.08.104 1.03.12.986.136.942.15c.46.08.905.165 1.336.256l.842.19c.412.099.81.203 1.196.313l.756.228c.37.118.729.242 1.078.37l.683.267c.112.045.223.092.333.138l.647.289.625.303.606.318.589.333c.097.057.193.114.288.172l.567.355c.094.06.186.122.279.183l.55.377.541.392.535.405.795.636.265.22c5.111 4.269 9.122 10.534 11.856 18.517l.414 1.24.264.832.255.84.246.852.12.431.232.876.112.445.218.907.106.463.203.946.195.977.184 1.01.089.52.17 1.068c.083.545.162 1.105.237 1.683l.146 1.181c.07.603.138 1.225.201 1.869l.121 1.315c.04.448.077.906.112 1.375l.102 1.438.091 1.505.082 1.574.072 1.649.032.853.056 1.765.047 1.847.036 1.932.014 1 .02 2.067.01 2.162v40.638l-.01 2.162-.02 2.067-.031 1.977-.041 1.89-.052 1.805c-.01.294-.019.585-.03.872l-.066 1.687-.076 1.61-.087 1.54-.097 1.471c-.05.72-.105 1.414-.164 2.086l-.121 1.315c-.063.644-.13 1.266-.2 1.869l-.147 1.18a80.75 80.75 0 0 1-.237 1.684l-.17 1.068-.089.52-.184 1.01-.195.977-.203.946-.214.92-.11.45-.227.885a59.75 59.75 0 0 1-.117.436l-.241.858-.251.846-.26.835-.407 1.243-.14.413c-2.734 7.983-6.745 14.248-11.856 18.518l-.794.646-.533.413-.538.399-.545.384-.276.187-.56.362c-.095.06-.19.118-.286.176l-.58.34c-.098.056-.197.11-.297.165l-.606.318-.625.303-.647.289c-.11.046-.22.093-.333.138l-.683.266c-.349.13-.708.253-1.078.37l-.756.229c-.386.11-.784.214-1.196.313l-.842.19c-.287.06-.58.118-.88.174l-.921.159-.964.143-1.008.128-1.055.111c-.18.018-.362.034-.546.05l-1.13.089-1.183.072-1.237.056-.64.023-1.324.032-1.384.016H520.53l-1.384-.016-1.324-.032-1.266-.049-1.21-.064-1.155-.08-.559-.046-1.08-.104-1.031-.12-.986-.136-.941-.15c-.46-.08-.906-.165-1.336-.256l-.842-.19a28.88 28.88 0 0 1-1.196-.313l-.756-.228c-.37-.118-.73-.242-1.078-.37l-.684-.267a22.294 22.294 0 0 1-.332-.138l-.647-.289-.626-.303-.606-.318-.588-.333a22.457 22.457 0 0 1-.289-.172l-.566-.355a24.2 24.2 0 0 1-.28-.183l-.549-.377-.541-.392-.535-.405-.796-.636a42.334 42.334 0 0 1-.264-.22c-5.111-4.269-9.123-10.534-11.856-18.517l-.414-1.24-.265-.832-.255-.84-.246-.852-.12-.431-.231-.876a59.106 59.106 0 0 1-.113-.445l-.218-.907-.105-.463-.204-.946-.194-.977-.185-1.01a69.73 69.73 0 0 1-.088-.52l-.17-1.068a80.75 80.75 0 0 1-.238-1.683l-.146-1.181c-.07-.603-.137-1.225-.2-1.869l-.122-1.315c-.039-.448-.076-.906-.111-1.375l-.102-1.438-.092-1.505-.081-1.574-.072-1.649a223.8 223.8 0 0 1-.032-.853l-.057-1.765-.046-1.847-.036-1.932-.014-1-.02-2.067-.011-2.162v-40.638l.01-2.162.02-2.067.032-1.977.041-1.89.051-1.805.03-.872.066-1.687.077-1.61.087-1.54.097-1.471c.05-.72.105-1.414.163-2.086l.122-1.315c.063-.644.13-1.266.2-1.869l.146-1.18a80.75 80.75 0 0 1 .238-1.684l.17-1.068.088-.52.185-1.01.194-.977.204-.946.213-.92.11-.45.228-.885a59.8 59.8 0 0 1 .117-.436l.241-.858.25-.846.26-.835.408-1.243.14-.413c2.733-7.983 6.745-14.248 11.856-18.518l.794-.646.533-.413.537-.399.546-.384c.091-.063.183-.125.276-.187l.56-.362c.095-.06.19-.118.285-.176l.581-.34c.098-.056.197-.11.296-.165l.606-.318.626-.303.647-.289c.11-.046.22-.093.332-.138l.684-.266c.349-.13.707-.253 1.078-.37l.756-.229c.386-.11.784-.214 1.196-.313l.842-.19c.287-.06.58-.118.88-.174l.921-.159.964-.143 1.008-.128 1.055-.111c.18-.018.362-.034.546-.05l1.13-.089 1.183-.072 1.237-.056.64-.023 1.324-.032z" fill="#D8D8D8" opacity=".604" filter="url(#b)" transform="translate(108.961 79.5)"/>
        <path d="m535.104 52.513 1.965-.013h36.94l1.965.013 1.88.027 1.796.04 1.718.054 1.641.066.793.038 1.533.087 1.465.099 1.399.112 1.337.125c.654.066 1.285.137 1.896.212l1.196.158c.585.082 1.15.168 1.698.26l1.074.189c.525.097 1.035.2 1.53.307l.97.22.472.115.92.24.887.251.86.264.836.276c.138.047.274.095.41.143l.804.294c.133.05.265.1.396.152l.78.312.77.325.759.337 1.13.527.375.181c7.256 3.54 12.952 8.737 16.833 15.357l.587 1.028.376.69.362.697.35.706.169.358.33.726.16.369.308.752.15.384.29.785.275.81.262.838c.043.142.085.286.126.43l.242.886c.117.452.23.916.337 1.396l.207.98c.1.5.195 1.015.285 1.549l.172 1.09c.055.372.108.752.159 1.14l.144 1.193.13 1.248.116 1.306.102 1.367c.016.233.03.469.045.707l.08 1.464.066 1.532.051 1.602c.008.273.014.55.02.83l.03 1.714.015 1.792v33.7l-.015 1.792-.03 1.715-.043 1.64-.059 1.566-.073 1.497c-.013.244-.027.485-.042.724l-.094 1.398-.109 1.336-.123 1.277-.137 1.22c-.073.596-.15 1.172-.233 1.73l-.172 1.09a50.71 50.71 0 0 1-.285 1.55l-.207.98c-.107.479-.22.943-.337 1.395l-.242.886c-.041.144-.083.288-.126.43l-.262.838-.276.81-.289.785-.303.762c-.051.126-.103.25-.156.374l-.323.734-.166.361-.343.712-.355.701-.37.693-.577 1.03a55.22 55.22 0 0 1-.2.343c-3.88 6.62-9.576 11.816-16.832 15.357l-1.128.536-.756.342-.764.33-.774.32-.392.154-.796.3c-.134.05-.269.098-.404.146l-.825.283-.42.136-.86.264-.889.251-.919.24-.471.115-.971.22c-.495.107-1.005.21-1.53.307l-1.074.19a65.79 65.79 0 0 1-1.698.26l-1.196.157c-.407.05-.824.098-1.25.144l-1.307.132-1.368.119-1.431.105-1.499.093-.775.042-1.604.073-1.68.06-1.756.046-.909.019-1.879.027-1.965.013h-36.94l-1.965-.013-1.88-.027-1.796-.04-1.718-.054-1.641-.066a151.99 151.99 0 0 1-.793-.038l-1.533-.087-1.465-.099-1.4-.112-1.336-.125a84.878 84.878 0 0 1-1.897-.212l-1.195-.158a65.79 65.79 0 0 1-1.698-.26l-1.074-.189c-.526-.097-1.035-.2-1.53-.307l-.97-.22a46.483 46.483 0 0 1-.473-.115l-.919-.24-.888-.251-.86-.264-.835-.276a41.074 41.074 0 0 1-.41-.143l-.805-.294c-.132-.05-.264-.1-.395-.152l-.781-.312-.769-.325-.76-.337-1.129-.527-.375-.181c-7.257-3.54-12.952-8.737-16.833-15.357l-.588-1.028-.375-.69-.363-.697-.349-.706a35.597 35.597 0 0 1-.17-.358l-.329-.726a33.759 33.759 0 0 1-.16-.369l-.309-.752-.15-.384-.289-.785-.275-.81-.263-.838a36.588 36.588 0 0 1-.125-.43l-.242-.886c-.118-.452-.23-.916-.337-1.396l-.207-.98c-.1-.5-.195-1.015-.285-1.549l-.173-1.09a63.275 63.275 0 0 1-.158-1.14l-.144-1.193-.13-1.248-.116-1.306-.102-1.367-.046-.707-.08-1.464-.066-1.532-.05-1.602c-.008-.273-.015-.55-.02-.83l-.03-1.714-.015-1.792v-33.7l.015-1.792.03-1.715.043-1.64.059-1.566.072-1.497.042-.724.095-1.398.109-1.336.123-1.277.137-1.22c.072-.596.15-1.172.232-1.73l.173-1.09c.09-.534.185-1.05.285-1.55l.207-.98c.107-.479.22-.943.337-1.395l.242-.886c.04-.144.083-.288.125-.43l.263-.838.275-.81.29-.785.302-.762.157-.374.322-.734c.055-.121.11-.241.167-.361l.342-.712.356-.701.369-.693.578-1.03.199-.343c3.881-6.62 9.576-11.816 16.833-15.357l1.127-.536.757-.342.763-.33.775-.32.392-.154.795-.3c.134-.05.27-.098.405-.146l.824-.283.421-.136.86-.264.888-.251.92-.24.471-.115.971-.22c.495-.107 1.004-.21 1.53-.307l1.074-.19a65.783 65.783 0 0 1 1.698-.26l1.195-.157c.408-.05.824-.098 1.25-.144l1.308-.132 1.367-.119 1.432-.105 1.498-.093.776-.042 1.604-.073 1.679-.06 1.757-.046.908-.019 1.88-.027z" fill="#91BFF2" opacity=".317" filter="url(#c)" transform="translate(108.961 79.5)"/>
        <path d="m220.284 63.516 2.188-.016h41.134l2.188.016 2.092.033 2.001.049 1.913.065 1.827.081c.298.015.592.03.883.047l1.707.105 1.631.121 1.558.138 1.49.152c.727.08 1.43.167 2.11.26l1.332.191c.651.1 1.28.206 1.891.317l1.195.231c.586.12 1.153.244 1.704.375l1.081.27c.177.045.352.092.526.14l1.023.291.989.308.957.322.93.337c.154.057.306.115.457.174l.896.359c.148.061.294.123.44.185l.87.382.856.396.845.41 1.258.644c.14.074.279.147.418.222 8.08 4.321 14.422 10.663 18.744 18.744l.654 1.255.418.842.404.85.389.863.189.436.366.886c.06.15.12.3.178.45l.345.919.166.468.322.958.307.99.292 1.022c.048.174.094.349.14.526l.27 1.08c.13.552.255 1.12.375 1.704l.23 1.196c.112.61.218 1.24.318 1.89l.192 1.332c.061.454.12.918.176 1.392l.16 1.456.146 1.523.129 1.594.113 1.668c.018.285.035.572.05.863l.09 1.787.073 1.87.057 1.956.023 1.012.032 2.092.017 2.188v41.134l-.017 2.188-.032 2.092-.05 2.001-.064 1.913-.082 1.827c-.014.298-.03.593-.046.884l-.105 1.706-.122 1.631-.137 1.558-.153 1.49c-.08.727-.166 1.43-.258 2.11l-.192 1.332c-.1.651-.206 1.28-.318 1.891l-.23 1.196c-.12.585-.245 1.152-.375 1.703l-.27 1.081c-.046.177-.092.352-.14.526l-.292 1.023-.307.989-.322.958-.337.93c-.057.153-.115.305-.174.456l-.36.896a44.56 44.56 0 0 1-.184.44l-.382.87-.396.856-.41.846-.644 1.257-.222.418c-4.322 8.08-10.663 14.423-18.744 18.744l-1.255.654-.842.419-.85.403-.863.389-.436.189-.887.367c-.149.06-.299.119-.45.177l-.918.345a43.04 43.04 0 0 1-.469.166l-.957.322-.99.308-1.022.291c-.174.048-.35.095-.526.14l-1.081.27c-.551.13-1.118.256-1.704.375l-1.195.23c-.61.112-1.24.218-1.891.318l-1.331.192c-.454.061-.918.12-1.392.176l-1.456.161-1.523.145-1.594.13-1.668.112c-.285.018-.573.035-.864.051l-1.786.09-1.87.072-1.956.057c-.333.009-.67.016-1.012.023l-2.092.033-2.188.016h-41.134l-2.188-.016-2.093-.033-2-.049-1.913-.065-1.828-.081c-.297-.015-.592-.03-.883-.047l-1.707-.105-1.63-.121-1.559-.138-1.489-.152c-.727-.08-1.43-.167-2.11-.26l-1.332-.191c-.651-.1-1.281-.206-1.891-.317l-1.196-.231a54.548 54.548 0 0 1-1.703-.375l-1.081-.27a47.992 47.992 0 0 1-.526-.14l-1.023-.291-.989-.308-.958-.322-.93-.337a43.105 43.105 0 0 1-.456-.174l-.896-.359a44.57 44.57 0 0 1-.441-.185l-.87-.382-.855-.396-.846-.41-1.257-.644a69.18 69.18 0 0 1-.418-.222c-8.081-4.321-14.423-10.663-18.744-18.744l-.655-1.255-.418-.842-.403-.85-.389-.863c-.064-.144-.127-.29-.189-.436l-.367-.886-.177-.45-.345-.919a43.04 43.04 0 0 1-.167-.468l-.322-.958-.307-.99-.292-1.022a47.992 47.992 0 0 1-.14-.526l-.269-1.08a54.548 54.548 0 0 1-.375-1.704l-.23-1.196c-.112-.61-.218-1.24-.318-1.89l-.192-1.332c-.061-.454-.12-.918-.176-1.392l-.161-1.456-.145-1.523-.13-1.594-.113-1.668-.05-.863-.09-1.787-.073-1.87-.057-1.956-.022-1.012-.033-2.092-.016-2.188v-41.134l.016-2.188.033-2.092.049-2.001.065-1.913.081-1.827c.015-.298.03-.593.047-.884l.105-1.706.121-1.631.137-1.558.153-1.49c.08-.727.167-1.43.259-2.11l.192-1.332c.1-.651.206-1.28.317-1.891l.231-1.196c.12-.585.244-1.152.375-1.703l.27-1.081c.045-.177.092-.352.14-.526l.291-1.023.307-.989.322-.958.337-.93a43.1 43.1 0 0 1 .175-.456l.359-.896c.061-.148.123-.295.185-.44l.382-.87.396-.856.41-.846.644-1.257c.073-.14.147-.279.222-.418 4.321-8.08 10.663-14.423 18.744-18.744l1.255-.654.842-.419.85-.403.862-.389.437-.189.886-.367.45-.177.919-.345c.155-.056.311-.112.468-.166l.958-.322.989-.308 1.023-.291c.174-.048.349-.095.526-.14l1.08-.27c.552-.13 1.119-.256 1.704-.375l1.196-.23c.61-.112 1.24-.218 1.89-.318l1.332-.192c.454-.061.917-.12 1.392-.176l1.455-.161 1.524-.145 1.594-.13 1.668-.112c.285-.018.572-.035.863-.051l1.787-.09 1.87-.072 1.956-.057c.333-.009.67-.016 1.011-.023l2.093-.033z" fill="#04CFD1" opacity=".229" filter="url(#d)" transform="translate(108.961 79.5)"/>
        <path d="M56.069 245.5h36.94l1.965.016 1.88.033 1.796.049 1.718.065 1.641.081c.267.015.532.03.793.047l1.533.105 1.465.121 1.399.138 1.337.152c.654.08 1.285.167 1.896.26l1.196.191c.585.1 1.15.206 1.698.317l1.074.231c.525.12 1.035.244 1.53.375l.97.27c.16.045.317.092.472.14l.92.291.887.308.86.322.836.337c.138.057.274.115.41.174l.804.359c.133.061.265.123.396.185l.78.382.77.396.759.41 1.13.644.375.222c7.256 4.321 12.952 10.663 16.833 18.744l.587 1.255.376.842.362.85.35.863.169.436.33.886.16.45.308.919.15.468.29.958.275.99.262 1.022c.043.174.085.349.126.526l.242 1.08c.117.552.23 1.12.337 1.704l.207 1.196c.1.61.195 1.24.285 1.89l.172 1.332c.055.454.108.918.159 1.392l.144 1.456.13 1.523.116 1.594.102 1.668c.016.285.03.572.045.863l.08 1.787.066 1.87.051 1.956c.008.333.014.67.02 1.012l.03 2.092.015 2.188v41.134l-.015 2.188-.03 2.092-.043 2.001-.059 1.913-.073 1.827c-.013.298-.027.593-.042.884l-.094 1.706-.109 1.631-.123 1.558-.137 1.49c-.073.727-.15 1.43-.233 2.11l-.172 1.332c-.09.651-.185 1.28-.285 1.891l-.207 1.196c-.107.585-.22 1.152-.337 1.703l-.242 1.081a52.41 52.41 0 0 1-.126.526l-.262 1.023-.276.989-.289.958-.303.93c-.051.153-.103.305-.156.456l-.323.896c-.055.148-.11.295-.166.44l-.343.87-.355.856-.37.846-.577 1.257a72.2 72.2 0 0 1-.2.418c-3.88 8.08-9.576 14.423-16.832 18.744l-1.128.654-.756.419-.764.403-.774.389-.392.189-.796.367c-.134.06-.269.119-.404.177l-.825.345c-.14.056-.28.112-.42.166l-.86.322-.889.308-.919.291c-.155.048-.313.095-.471.14l-.971.27c-.495.13-1.005.256-1.53.375l-1.074.23c-.548.112-1.113.218-1.698.318l-1.196.192c-.407.061-.824.12-1.25.176l-1.307.161-1.368.145-1.431.13-1.499.112c-.255.018-.514.035-.775.051l-1.604.09-1.68.072-1.756.057c-.3.009-.602.016-.909.023l-1.879.033-1.965.016H56.07l-1.965-.016-1.88-.033-1.796-.049-1.718-.065-1.641-.081c-.268-.015-.532-.03-.793-.047l-1.533-.105-1.465-.121-1.4-.138-1.336-.152a70.17 70.17 0 0 1-1.897-.26l-1.195-.191c-.585-.1-1.15-.206-1.698-.317l-1.074-.231a44.728 44.728 0 0 1-1.53-.375l-.97-.27a39.634 39.634 0 0 1-.473-.14l-.919-.291-.888-.308-.86-.322-.835-.337a36.363 36.363 0 0 1-.41-.174l-.805-.359a37.893 37.893 0 0 1-.395-.185l-.781-.382-.769-.396-.76-.41-1.129-.644-.375-.222c-7.257-4.321-12.952-10.663-16.833-18.744l-.588-1.255-.375-.842-.363-.85-.349-.863-.17-.436-.329-.886-.16-.45-.309-.919-.15-.468-.289-.958-.275-.99-.263-1.022a52.414 52.414 0 0 1-.125-.526l-.242-1.08a59.926 59.926 0 0 1-.337-1.704l-.207-1.196c-.1-.61-.195-1.24-.285-1.89l-.173-1.332a93.387 93.387 0 0 1-.158-1.392l-.144-1.456-.13-1.523-.116-1.594-.102-1.668-.046-.863-.08-1.787-.066-1.87-.05-1.956c-.008-.333-.015-.67-.02-1.012l-.03-2.092L0 349.067v-41.134l.015-2.188.03-2.092.043-2.001.059-1.913.072-1.827.042-.884.095-1.706.109-1.631.123-1.558.137-1.49c.072-.727.15-1.43.232-2.11l.173-1.332c.09-.651.185-1.28.285-1.891l.207-1.196c.107-.585.22-1.152.337-1.703l.242-1.081c.04-.177.083-.352.125-.526l.263-1.023.275-.989.29-.958.302-.93.157-.456.322-.896c.055-.148.11-.295.167-.44l.342-.87.356-.856.369-.846.578-1.257.199-.418c3.881-8.08 9.576-14.423 16.833-18.744l1.127-.654.757-.419.763-.403.775-.389.392-.189.795-.367c.134-.06.27-.119.405-.177l.824-.345c.14-.056.28-.112.421-.166l.86-.322.888-.308.92-.291c.155-.048.312-.095.471-.14l.971-.27c.495-.13 1.004-.256 1.53-.375l1.074-.23a54.804 54.804 0 0 1 1.698-.318l1.195-.192c.408-.061.824-.12 1.25-.176l1.308-.161 1.367-.145 1.432-.13 1.498-.112c.256-.018.514-.035.776-.051l1.604-.09 1.679-.072 1.757-.057c.3-.009.602-.016.908-.023l1.88-.033 1.965-.016z" fill="#91BFF2" opacity=".297" filter="url(#e)" transform="translate(108.961 79.5)"/>
        <path d="M536.181 112C549.888 112 561 123.104 561 136.801V580.2C561 593.896 549.888 605 536.181 605H358.82C345.112 605 334 593.896 334 580.199V136.8C334 123.104 345.112 112 358.819 112H536.18zm.25 9.679-23.499-.001a4 4 0 0 0-1.44 2.581l-.024.231-.524 7.203a10.035 10.035 0 0 1-9.733 9.303l-.276.004h-106.87c-5.26 0-9.628-4.061-10.01-9.307l-.523-7.203a4 4 0 0 0-1.464-2.812h-23.25c-8.274 0-14.997 6.636-15.133 14.873V580.2c0 8.268 6.64 14.987 14.883 15.122h177.613c8.275 0 14.998-6.635 15.134-14.872V136.8c0-8.268-6.64-14.987-14.883-15.122z" fill="#91BFF2" opacity=".7"/>
        <path d="M626.172 180h57.468c10.253 0 13.97 1.067 17.719 3.072 3.748 2.005 6.69 4.946 8.694 8.694 2.005 3.748 3.072 7.466 3.072 17.719v28.03c0 10.253-1.067 13.97-3.072 17.719-2.005 3.748-4.946 6.69-8.694 8.694-3.748 2.005-7.466 3.072-17.719 3.072h-57.468c-10.252 0-13.97-1.067-17.718-3.072-3.748-2.005-6.69-4.946-8.694-8.694-2.005-3.748-3.072-7.466-3.072-17.719v-28.03c0-10.253 1.067-13.97 3.072-17.719 2.004-3.748 4.946-6.69 8.694-8.694 3.748-2.005 7.466-3.072 17.718-3.072z" fill="#91BFF2" opacity=".2"/>
        <path d="M594.665 205.165h58.67c5.795 0 7.896.604 10.014 1.737a11.812 11.812 0 0 1 4.915 4.914c1.133 2.118 1.736 4.22 1.736 10.015v18.438c0 5.795-.603 7.896-1.736 10.014a11.812 11.812 0 0 1-4.915 4.915c-2.118 1.133-4.22 1.736-10.014 1.736h-58.67c-5.795 0-7.896-.603-10.014-1.736a11.812 11.812 0 0 1-4.915-4.915c-1.133-2.118-1.736-4.22-1.736-10.014V221.83c0-5.795.603-7.897 1.736-10.015a11.812 11.812 0 0 1 4.915-4.914c2.118-1.133 4.22-1.737 10.014-1.737z" fill="#91BFF2" opacity=".2"/>
        <path d="M462.82 488.165h56.36c4.458 0 6.075.464 7.704 1.336a9.086 9.086 0 0 1 3.78 3.78c.872 1.63 1.336 3.246 1.336 7.704v61.36c0 4.458-.464 6.075-1.336 7.705a9.086 9.086 0 0 1-3.78 3.78c-1.63.871-3.246 1.335-7.703 1.335h-56.362c-4.457 0-6.074-.464-7.703-1.335a9.086 9.086 0 0 1-3.78-3.78c-.872-1.63-1.336-3.247-1.336-7.704v-61.361c0-4.458.464-6.074 1.336-7.704a9.086 9.086 0 0 1 3.78-3.78c1.63-.872 3.246-1.336 7.703-1.336z" fill="#E3EFFC"/>
        <path d="M373.82 428.165h56.36c4.458 0 6.075.464 7.704 1.336a9.086 9.086 0 0 1 3.78 3.78c.872 1.63 1.336 3.246 1.336 7.704v61.36c0 4.458-.464 6.075-1.336 7.705a9.086 9.086 0 0 1-3.78 3.78c-1.63.871-3.246 1.335-7.703 1.335h-56.362c-4.457 0-6.074-.464-7.703-1.335a9.086 9.086 0 0 1-3.78-3.78c-.872-1.63-1.336-3.247-1.336-7.704v-61.361c0-4.458.464-6.074 1.336-7.704a9.086 9.086 0 0 1 3.78-3.78c1.63-.872 3.246-1.336 7.703-1.336zM692.372 205.165h31.443c5.111 0 7.09.557 9.046 1.603a10.904 10.904 0 0 1 4.536 4.536c1.046 1.956 1.603 3.935 1.603 9.046v6.3c0 5.11-.557 7.09-1.603 9.046a10.904 10.904 0 0 1-4.536 4.536c-1.955 1.046-3.935 1.603-9.046 1.603h-31.443c-5.11 0-7.09-.557-9.046-1.603a10.904 10.904 0 0 1-4.536-4.536c-1.046-1.956-1.602-3.935-1.602-9.046v-6.3c0-5.11.556-7.09 1.602-9.046a10.904 10.904 0 0 1 4.536-4.536c1.956-1.046 3.935-1.603 9.046-1.603z" fill="#91BFF2" opacity=".2"/>
        <path d="M612.142 188.628h60.372a4.674 4.674 0 1 1 0 9.347h-60.372a4.674 4.674 0 1 1 0-9.347z" fill="#FFF"/>
        <path d="M684.734 190.066a3.234 3.234 0 0 1 3.235 3.234v.003a3.234 3.234 0 1 1-6.469 0v-.003a3.234 3.234 0 0 1 3.234-3.234zM693.36 190.066a3.234 3.234 0 0 1 3.234 3.234v.003a3.234 3.234 0 1 1-6.469 0v-.003a3.234 3.234 0 0 1 3.234-3.234zM701.984 190.066a3.234 3.234 0 0 1 3.235 3.234v.003a3.234 3.234 0 1 1-6.469 0v-.003a3.234 3.234 0 0 1 3.234-3.234z" fill="#91BFF2"/>
        <path d="M424.86 366h8.279l.598.005.572.009.547.013.264.009.51.02.488.026.466.029.445.034.424.038c.138.014.274.028.406.043l.387.047.187.026.363.053c.118.019.233.038.346.059l.332.062.319.067.154.035.3.073.288.077.279.082.269.086c.132.044.262.09.388.137l.25.096.245.1.24.106.236.108.233.113.231.117.23.121a12.191 12.191 0 0 1 5.072 5.072l.121.23.117.232.113.233.109.236.105.24.1.244.097.25c.031.085.062.17.092.257l.088.265.042.136.082.278.077.289.074.3.035.154.066.318.063.332.03.172.055.354c.018.12.036.244.052.37l.047.388.022.2.04.415.037.435.032.455.014.235.025.488.02.51.016.535.012.559.007.585.002.612v7.969l-.005.598-.01.572-.013.547-.009.264-.02.51-.025.488-.03.466-.034.445-.038.424c-.013.138-.028.274-.043.406l-.047.387-.025.187-.054.363a18.21 18.21 0 0 1-.058.346l-.063.332-.066.319-.035.154-.074.3-.077.288-.082.279-.086.269c-.044.132-.09.262-.136.388l-.097.25-.1.245-.105.24-.109.236-.113.233-.117.231-.121.23a12.191 12.191 0 0 1-5.072 5.072l-.23.121-.231.117-.233.113-.236.109-.24.105-.244.1-.25.097c-.085.031-.17.062-.258.092l-.265.088-.135.042-.279.082-.288.077-.3.074-.154.035-.319.066-.332.063-.171.03-.354.055c-.121.018-.245.036-.37.052l-.388.047-.2.022-.416.04-.434.037-.455.032-.236.014-.487.025-.51.02-.535.016-.56.012-.585.007-.612.002h-7.968l-.599-.005-.572-.01-.547-.013a52.68 52.68 0 0 1-.264-.009l-.51-.02-.488-.025-.466-.03-.444-.034-.425-.038a26.257 26.257 0 0 1-.405-.043l-.388-.047a21.715 21.715 0 0 1-.187-.025l-.362-.054a18.209 18.209 0 0 1-.347-.058l-.332-.063-.318-.066a14.452 14.452 0 0 1-.155-.035l-.3-.074-.288-.077-.278-.082-.27-.086c-.132-.044-.261-.09-.388-.136l-.25-.097-.245-.1-.24-.105-.235-.109-.233-.113-.232-.117-.23-.121a12.191 12.191 0 0 1-5.072-5.072l-.12-.23-.118-.231-.113-.233-.108-.236-.105-.24-.1-.244-.097-.25a11.67 11.67 0 0 1-.092-.258l-.088-.265a12.04 12.04 0 0 1-.043-.135l-.082-.279-.077-.288-.073-.3-.035-.154-.067-.319-.062-.332-.03-.171-.056-.354-.052-.37-.047-.388a25.507 25.507 0 0 1-.022-.2l-.04-.416-.037-.434-.031-.455-.014-.236-.025-.487-.021-.51-.016-.535-.011-.56-.007-.585-.002-.302v-8.278l.005-.599.009-.572.013-.547.009-.264.02-.51.026-.488.029-.466.034-.444.038-.425.043-.405.047-.388.026-.187.053-.362c.019-.118.038-.234.059-.347l.062-.332.067-.318.035-.155.073-.3.077-.288.082-.278.086-.27c.044-.132.09-.261.137-.388l.096-.25.1-.245.106-.24.108-.235.113-.233.117-.232.121-.23a12.191 12.191 0 0 1 5.072-5.072l.23-.12.232-.118.233-.113.236-.108.24-.105.244-.1.25-.097c.085-.032.17-.062.257-.092l.265-.088.136-.043.278-.082.289-.077.3-.073.154-.035.318-.067.332-.062.172-.03.354-.056c.12-.018.244-.035.37-.052l.388-.047.2-.022.415-.04.435-.037.455-.031.235-.014.488-.025.51-.021.535-.016.559-.011.585-.007.303-.002z" fill="#04CFD1" opacity=".17"/>
        <g>
            <path d="M548.936 552.952c0 1.707 3.598 29.117.8 32.258.133 2.523 3.149 3.595 9.05 3.215l7.777-37.05c-11.751-.085-17.627.44-17.627 1.577z" fill="#F9C4B2"/>
            <path d="M557.75 552.845c0 1.706-.43 28.18-3.226 31.32.131 2.524 1.552 3.943 4.261 4.26l7.778-37.05c-5.876-.157-8.814.333-8.814 1.47z" fill="#F8A88E"/>
            <path d="M531.451 609.735c.142 5.122 3.284 7.082 9.425 5.88 6.141-1.2 13.2-8.853 21.176-22.957l-.005-2.674-30.596 19.751z" fill="#737373"/>
            <path d="M560.365 578.608c.08 1.984-2.709 12.588-11.665 5.362-4.153 6.494-17.92 19.147-17.366 25.15.555 6.002 10.937 8.128 19.071-.853 5.902-9.398 12.2-17.383 11.996-17.863-.203-.48-.832-9.868-2.036-11.796z" fill="#F2F2F2"/>
            <path d="M546.163 598.666c3.78-6.61 6.497-10.78 8.154-12.514.62-2.737-.158-4.107-2.334-4.111-2.177-.004-3.14 1.063-2.891 3.2-6.84 9.084-11.051 14.754-12.636 17.009-1.73 2.463 5.188 7.921 9.707-3.584z" fill="#D8D8D8"/>
            <path stroke="#FFF" stroke-width="2" stroke-linecap="round" d="m547.718 586.735 5.205 1.749M545.41 589.63l5.206 1.75M543.68 592.528l5.207 1.749M541.373 595.423l5.785 2.33M539.067 598.9l5.784 2.329"/>
            <path d="M558.043 553.322c.638 1.273 1.133 2.062 1.486 2.368.352.306.822.515 1.409.624 6.42-1.627 12.294-7.826 17.62-18.595 4.298-8.14 6.738-12.613 7.32-13.417l-1.924-1.673-25.911 30.693z" fill="#737373"/>
            <path d="M542.338 507.824c1.284 1.116 23.152 16.436 23.689 20.592.358 2.771 2.719.055 7.083-8.148l-20.287-26.979c-7.846 8.946-11.34 13.791-10.485 14.535z" fill="#EF3C00" opacity=".3"/>
            <path d="M572.52 517.547c-1.385 1.592-2.561 13.414-7.668 11.207-.795 6.913-3.843 17.49-7.083 24.212 3.301 7.603 14.847-7.073 18.791-16.972 3.944-9.9 7.821-12.923 7.466-13.232-.356-.31-10.123-6.807-11.507-5.215z" fill="#D8D8D8"/>
            <path d="M560.078 547.935s2.054 3.846 5.573-6.868c2.347-7.143 3.389-11.619 3.127-13.429-1.108-.917-1.882-1.313-2.323-1.188-.44.125-.975.893-1.603 2.304l-4.774 19.18z" fill="#D8D8D8"/>
            <g transform="translate(521.162 266.342)">
                <mask id="g" fill="#fff">
                    <use xlink:href="#f"/>
                </mask>
                <use fill="#FAC4B2" xlink:href="#f"/>
                <path d="M24.306 15.14c1.9 2.455 4.056-4.806 5.678-3.288 3.972-1.22 7.557 1.624 6.47 4.818-1.086 3.194.5 6.567-2.941 7.573-.85 4.156-.389 10.321-7.324 13.302 7.794-.927 9.407-.927 9.836 1.8.286 1.817.792 6.579 1.516 14.285l5.284-8.402-3.16-34.304-23.057-7.862-14.435 7.862c-.222 4.278.953 6.417 3.526 6.417 3.86 0 12.34-10.3 18.607-2.2z" fill="#DE2F00" opacity=".2" mask="url(#g)"/>
            </g>
            <path d="M496.323 492.101c30.03 19.64 46.675 30.886 49.933 33.737 3.26 2.85 5.87-5.895 7.833-26.237l-40.172-27.796-17.594 20.296z" fill="#28B4C2"/>
            <g transform="translate(613.588 235)">
                <mask id="i" fill="#fff">
                    <use xlink:href="#h"/>
                </mask>
                <use fill="#FAC4B2" xlink:href="#h"/>
                <path d="m38.563 48.514 5.35-2.082c-3.454-16.115-5.237-25.213-5.35-27.292C38.394 16.021 22.86 0 17.245-1.58c-5.614-1.58-4.363-4.272-4.363 0 0 2.605 7.03 27.73 7.516 18.861.374-6.818 1.368-13.057 1.736-11.572.394 1.59.184 11.24 1.281 13.431.712 1.423 2.86-7.745 3.451-7.319.755.545 1.016 8.763 0 12.343-.386 1.363-.357 7.598-3.451 7.977C15.639 28.913-.223 27.029 0 28.2c.181.953 12.282 3.999 19.88 4.756 3.154.314 5.346-2.65 5.884-2.196 2.898 2.452 7.364 9.968 8.775 11.913 1.523 2.1 2.865 4.046 4.024 5.84z" fill="#F8A88E" mask="url(#i)"/>
            </g>
            <g transform="translate(494.012 409.122)">
                <mask id="k" fill="#fff">
                    <use xlink:href="#j"/>
                </mask>
                <use fill="#04CFD1" xlink:href="#j"/>
                <path d="M54.348 28.306c16.295 0 29.794-11.257 29.794-3.075 0 6.412-10.504 74.802-10.886 75.9-1.764 5.076-1.764 58.106 0 60.802 1.176 1.797 8.336-51.363 21.48-159.482l-5.123-9.574C52.632 1.312 31.74 7.733 26.936 12.14c-7.206 6.61 11.116 16.166 27.412 16.166z" fill="#28B4C2" mask="url(#k)"/>
            </g>
            <path d="M471.9 361.33c-18.18 12.81-28.761 19.616-31.746 20.42-4.477 1.205-20.373 7.26-22.473 12.899 7.314-2.539 13.387-3.853 18.217-3.944 2.426 3.429-5.18 8.215-1.742 7.29 4.294.802 14.39-17.126 29.842-21.286 10.3-2.773 16.406-5.077 18.316-6.913l-10.415-8.465z" fill="#F9C4B2"/>
            <path d="M471.9 361.33c-15.187 15.144-24.273 23.118-27.258 23.922-4.477 1.205-26.961 7.238-26.961 9.397 7.314-2.539 13.387-3.853 18.217-3.944 2.426 3.429-5.18 8.215-1.742 7.29 4.294.802 14.39-17.126 29.842-21.286 10.3-2.773 16.406-5.077 18.316-6.913l-10.415-8.465z" fill="#F8A88E"/>
            <g transform="translate(461.085 302.327)">
                <mask id="m" fill="#fff">
                    <use xlink:href="#l"/>
                </mask>
                <use fill="#F2F2F2" xlink:href="#l"/>
                <path d="M131.183 30.01c-8.928 2.365-10.279 34.534-4.054 96.508 3.125-64.215 7.618-97.373 13.479-99.474 8.79-3.152.978-.967-9.425 2.967zM9.996 74.811c30.735-13.293 47.742-21.643 51.021-25.048 3.28-3.405 4.338-7.209 3.177-11.41 1.871 16.62 3.283 24.93 4.238 24.93.954 0-18.524 3.843-58.436 11.528z" fill="#737373" opacity=".2" mask="url(#m)"/>
            </g>
            <path d="M595.231 305.638c33.13-5.64 49.694-9.886 49.694-12.74 0-2.854-.805-4.728-2.415-5.623l15.631-5.843c5.691 11.147 7.84 17.969 6.449 20.464-1.392 2.495-26.673 13.086-75.841 31.773l6.482-28.03z" fill="#F2F2F2"/>
            <g transform="translate(514.23 254.153)">
                <mask id="o" fill="#fff">
                    <use xlink:href="#n"/>
                </mask>
                <use fill="#ED9B1C" xlink:href="#n"/>
                <path d="M-2.151 27.718C2.939 9.239 10.506 0 20.552 0c15.07 0 30.255-.745 30.255 8.914 0 9.659 5.39 44.104-2.636 37.244-8.025-6.86-8.937-42.707-23.637-42.707-9.8 0-18.695 8.089-26.685 24.267z" fill="#DE2F00" opacity=".3" mask="url(#o)"/>
            </g>
            <path d="M548.023 454.109c-7.894 5.527-14.538 12.057-19.932 19.59-5.394 7.534-7.703 12.997-6.929 16.39l26.861-35.98z" fill="#28B4C2"/>
        </g>
        <g>
            <path fill="#737373" d="m507.453 441.331-18.728 17.514h-61.576l15.524-17.903z"/>
            <path d="m410.079 418.025 57.962-.98a4 4 0 0 1 3.741 2.416L489.255 460h-62.742L408.3 420.869a2 2 0 0 1 1.78-2.844z" fill="#1D1F26"/>
            <path d="M507.789 441.513a.928.928 0 0 1-.23.992L489.25 460l-.524-1.415 18.408-17.227a.404.404 0 0 1 .656.155z" fill="#1D1F26"/>
        </g>
        <g>
            <path d="M650.793 438h39.414c7.578 0 10.326.789 13.096 2.27a15.447 15.447 0 0 1 6.426 6.427c1.482 2.77 2.271 5.518 2.271 13.096v123.414c0 7.578-.789 10.326-2.27 13.096a15.447 15.447 0 0 1-6.427 6.426c-2.77 1.482-5.518 2.271-13.096 2.271h-39.414c-7.578 0-10.326-.789-13.096-2.27a15.447 15.447 0 0 1-6.426-6.427c-1.482-2.77-2.271-5.518-2.271-13.096V459.793c0-7.578.789-10.326 2.27-13.096a15.447 15.447 0 0 1 6.427-6.426c2.77-1.482 5.518-2.271 13.096-2.271z" fill="#D8D8D8" opacity=".3"/>
            <path d="M631 489h79a2 2 0 1 1 0 4h-79a2 2 0 1 1 0-4z" fill="#D8D8D8" opacity=".5"/>
            <path d="M650 518h39a2 2 0 1 1 0 4h-39a2 2 0 1 1 0-4zM651 460h39a2 2 0 1 1 0 4h-39a2 2 0 1 1 0-4zM650 576h39a2 2 0 0 1 0 4h-39a2 2 0 0 1 0-4z" fill="#737373" opacity=".5"/>
            <path d="M631 547h79a2 2 0 0 1 0 4h-79a2 2 0 0 1 0-4z" fill="#D8D8D8" opacity=".5"/>
        </g>
        <g transform="translate(245 374)">
            <ellipse fill="#D8D8D8" opacity=".4" filter="url(#p)" cx="51.5" cy="306" rx="27.5" ry="6"/>
            <ellipse fill="#D8D8D8" opacity=".4" filter="url(#q)" cx="132" cy="312.5" rx="6" ry="1.5"/>
            <g transform="translate(0 179)">
                <mask id="s" fill="#fff">
                    <use xlink:href="#r"/>
                </mask>
                <use fill="#DE2F00" xlink:href="#r"/>
                <path d="M34.454 57.455c22.634 0 37.485-11.705 37.485-28.574-8.087 2.09-40.153-5.427-48.88-11.029-7.175-4.606 12.542-23.17 2.328-23.17C2.753-5.317-6.528 10.04-6.528 26.91c0 16.87 18.348 30.546 40.982 30.546z" fill="#F8A88E" opacity=".4" mask="url(#s)"/>
            </g>
            <path d="M68.488 83.858c9.198 25.869 16.074 40.346 20.627 43.43 1.922 1.303 10.14 4.418 15.58 4.385 2.5-.015 2.642-1.903 3.359-1.903.865 0 12.747 4.804 11.774 6.387-.974 1.584-4.385.259-2.654.047.234-.029-.122-.047.421-.047 1.501.324-.848 2.07-7.048 5.237-2.644-1.067-4.595-1.649-5.852-1.745-7.39-.564-7.03-1.156-10.123-1.45-3.288-.312-8.118-2.194-10.357-2.456-6.207-.727-16.929-15.324-32.165-43.79-1.87-1.867-.517-4.565 4.057-8.095 4.574-3.53 8.701-3.53 12.381 0z" fill="#F8A88E"/>
            <g transform="matrix(-1 0 0 1 78.492 15.922)">
                <mask id="u" fill="#fff">
                    <use xlink:href="#t"/>
                </mask>
                <use fill="#FAC4B2" transform="rotate(-11 24.468 39.526)" xlink:href="#t"/>
                <path d="M36.563 44.004c-1.232.258-10.606 6.187-8.313 11.86 2.294 5.671 11.542 16.987 10.223 16.987-.88 0-5.724 1.709-14.533 5.128l-7.389-10.32c-1.031-2.616-1.031-5.118 0-7.505 1.032-2.388 3.75-6.176 8.156-11.365 6.262-2.303 9.803-4.18 10.624-5.63 1.232-2.177 2.463.587 1.232.845z" fill="#F8A88E" mask="url(#u)"/>
            </g>
            <path d="M131.34 239.656c.312 29.367 1.05 45.177 2.216 47.43.756 7.627.934 9.06 1.016 10.22.122 1.724-7.815-10.384-10.117-10.225-5.037.348-1.942-7.724-2.543-16.21.106-.412 1.357-1.353 1.447-1.773 1.357-6.346-.26-12.939-1.46-19.97-.85-4.997 2.296-8.154 9.442-9.472z" fill="#F9C4B2"/>
            <path d="M135.172 292.777c-7.858-5.259-11.795-13.152-11.813-23.679.928-4.057.74-5.151-.231-5.235-1.823-.157-2.846-.156-5.119 2.616-5.63 6.623-4.562 6.78-4.676 7.482.568 3.239 2.917-6.74 7.082-.886 2.894 7.851-.515 13.783 3.298 20.66 2.646 4.772 10.701 11.546 11.288 10.382.955-1.895 1.012-5.675.17-11.34zM60.284 180.082c35.676-2.222 56.963-2.276 63.863-.16 6.9 2.115 9.708 27.811 8.426 77.088 1.301-.668 1.301.565 0 3.702-2.45 1.083-5.959 1.327-10.528.733a19.265 19.265 0 0 1-.477-3.053c-.04-.584.915-.182.78-1.027-.47-2.92-.934-5.605-1.393-8.052-6.668-17.523-9.992-31.876-9.972-43.058-7.555-4.93-24.888-6.976-51.998-6.139l-4.835-6.223 6.134-13.81z" fill="#1D1F26"/>
            <path d="M102.955 189.58c4.403-8.807 10.842-12.832 21.192-9.658 6.9 2.115 9.708 27.811 8.426 77.088 1.301-.668 1.301.565 0 3.702-2.45 1.083-5.959 1.327-10.528.733a19.265 19.265 0 0 1-.477-3.053c-.04-.584.915-.182.78-1.027-.47-2.92-.934-5.605-1.393-8.052-3.423-18.3-5.125-33.041-5.105-44.223-11.332-7.394-17.298-6.702-12.895-15.51z" fill="#737373" opacity=".2"/>
            <path d="M164.31 213.179c5.578 15.504 10.706 24.615 15.383 27.332 2.234 1.298 4.93 3.866 7.945 5.992 6.454 4.55 11.96 8.062 12.194 9.216.348 1.715-23.083-6.279-25.355-7.078-6.077-2.138-8.456.314-10.168-8.13-.073-.363.85-3.543.763-3.882-1.918-7.572-7.828-6.871-10.02-13.92-1.526-4.911 1.56-8.088 9.257-9.53z" fill="#F9C4B2"/>
            <path d="M155.447 218.528c9.637 15.932 16.793 25.257 21.47 27.975 2.235 1.298 8.149.012 11.165 2.138 6.454 4.55 11.516 5.924 11.75 7.078.348 1.715-23.083-6.279-25.355-7.078-6.077-2.138-8.456.314-10.168-8.13-.073-.363.85-3.543.763-3.882-1.918-7.572-7.828-6.871-10.02-13.92-1.526-4.911-1.395-6.305.395-4.181z" fill="#F8A88E"/>
            <path d="M191.392 248.784c-8.464 2.6-16.702.446-24.714-6.46-2.2-3.749-1.166-4.896-2.492-7.588-2.883 5.023-3.172 3.27-3.974 7.749-.122.681 1.055 9.24 1.514 9.788 2.835 1.702-2.189-6.06 4.997-5.344 11.21 2.905 10.137 9.448 17.869 11.1 5.365 1.148 15.805-.456 15.306-1.662-.813-1.964-3.648-4.492-8.506-7.583z" fill="#1D1F26"/>
            <g transform="matrix(-1 0 0 1 167.785 148.645)">
                <mask id="w" fill="#fff">
                    <use xlink:href="#v"/>
                </mask>
                <use fill="#2C2E34" xlink:href="#v"/>
                <path d="M47.138.654C38.266 4.903 4.095 53.26 1.508 68.638c-.783 3.949-2.45 2.799-.813 5.035 1.34.724 4.815 2.153 10.42 4.287-3.854 1.084-4.64-.345-2.36-4.287 4.253-4.213 6.069-6.655 5.447-7.326 8.553-9.864 14.103-15.895 16.65-18.094 3.822-3.298 14.841-26.165 16.286-25.815 16.345 10.44 15.754 2.071 19.812-5.19 2.8-5.009-28.571-10.44-27.853-12.66 1.455-4.487 30.456.31 44.256 5.587 14.33 5.48 24.874 12.26 25.348 12.263 4.66 0 10.266 15.027 2.91-3.378C105.878 14.049 56.008-3.594 47.137.654z" fill="#737373" opacity=".2" mask="url(#w)"/>
            </g>
            <g transform="matrix(-1 0 0 1 94.214 71.785)">
                <use fill="#1D1F26" xlink:href="#x"/>
                <mask id="z" fill="#fff">
                    <use xlink:href="#y"/>
                </mask>
                <use fill="#737373" opacity=".3" xlink:href="#y"/>
                <path d="M57.91 100.697c3.873 3.328-2.893-1.353 1.203-1.22 3.428.111 14.382 6.123 11.273 3.892-.346-.248-2.085-1.25-1.224-1.67 1.104-.539 4.86-.522 4.032-1.01-.835-.494-4.432.479-6.223.003-1.883-.5-17.473-12.852-21.433-33.617-2.187-11.47 14.869-14.623 10.27-24.983-4.51-10.162-23.944-9.821-33.763-14.5-1.784-.85 2.91-7.667 7.285-22.145 4.376-14.478-20.074 6.565-19.255 29.82.298 8.464 1.09 26.874 2.378 55.23-1.065 3.009-.684 4.36 1.143 4.054 6.748-1.132 10.812-5.032 14.095-4.406 1.524.29 7.122 1.063 8.58 1.622 8.333 3.193 19.23 6.86 21.639 8.93z" fill="#1D1F26" opacity=".4" mask="url(#z)" transform="rotate(7 41.683 52.277)"/>
                <path d="M50.827 20.806c2.089-7.103 4.336-10.655 6.742-10.655 2.406 0 3.376 2.66 2.91 7.976l-9.652 2.68z" fill="#1D1F26" opacity=".3" mask="url(#z)"/>
            </g>
            <g>
                <path fill="#D8D8D8" d="m83.774 158.82-26.71-11.625v-.725l38.607-4.238 34.474 7.569"/>
                <path fill="#F1F1F1" d="m83.774 158.095-26.71-11.625 38.607-4.964 34.474 8.295"/>
                <path fill="#D8D8D8" d="m84.937 150.526-11.676-5.082 16.876-2.17 15.069 3.626"/>
                <path fill="#737373" d="m106.512 127.98-22.738 30.84 46.37-9.02 23.801-29.071z"/>
                <path stroke="#D8D8D8" d="m153.945 120.729-47.433 7.25-22.738 30.841"/>
            </g>
            <g transform="matrix(-1 0 0 1 94.265 89.912)">
                <mask id="B" fill="#fff">
                    <use xlink:href="#A"/>
                </mask>
                <use fill="#FAC4B2" xlink:href="#A"/>
                <path d="M60.528-4.546c-8.346 27.684-13.848 43.577-16.505 47.68-3.986 6.155-7.01 3.068-12.473 5.3-3.118 1.273 4.95-20.884 19.554-46.585 1.637-2.88 4.778-5.012 9.424-6.395z" fill="#F8A88E" mask="url(#B)"/>
                <path d="M35.901 36.608c-8.324 27.814-13.81 43.782-16.458 47.905-3.97 6.185 6.863 4.336 1.423 6.58-1.716.709-4.164-2.535-6.267-17.018.668-2.068 4.261-1.94 4.257-5.839-.016-14.187 1.55-28.374 6.445-37.059 1.631-2.894 5.164-1.084 10.6 5.431z" fill="#F8A88E" mask="url(#B)" transform="rotate(83 25.25 60.513)"/>
            </g>
            <g transform="matrix(-1 0 0 1 77.46 0)">
                <path d="M.294 43.134c3.255-.917 5.618-1.54 7.092-1.869.908-.202 4.124-4.404 9.648-12.604L9.352 41.265c8.207 7.131 15.08 10.845 20.62 11.14 1.12.5-1.33-8.88 0-9.271 2.228-.655 4.013-3.77 6.025-1.972.568.508 1.338 3.553 0 7.15-1.259 3.387-6.387 1.458-1.413 11.169.32 1.848-.78-2.49 1.82-5.154 5.725-5.11 14.953-36.338-16.097-39.986C5.14 18.196-1.53 27.794.294 43.134z" fill="#1D1F26"/>
                <path d="M21.047 29.816c6.176 8.248 9.265 16.807 9.265 25.677 0 13.304 2.006-4.678 0-16.92-1.338-8.161-3.104-13.298-5.3-15.411l-3.965 6.654z" fill="#1D1F26"/>
                <ellipse fill="#1D1F26" cx="35.53" cy="17.38" rx="14.47" ry="14.331"/>
                <ellipse fill="#737373" opacity=".4" cx="38.663" cy="15.738" rx="9.152" ry="9.064"/>
                <ellipse stroke="#1D1F26" cx="34.299" cy="14.331" rx="13.97" ry="13.831"/>
                <ellipse stroke="#1D1F26" cx="19.213" cy="18.294" rx="3.194" ry="9.867"/>
                <ellipse stroke="#1D1F26" cx="39.832" cy="21.343" rx="12.115" ry="9.867"/>
            </g>
        </g>
        <g fill="#91BFF2">
            <path d="m167.581 307.007.893-.007h44.052l.893.007.854.013.816.02.78.027.746.033.36.019.697.043.665.05.636.055.608.063c.297.033.583.068.861.106l.543.078c.266.04.523.084.772.13l.488.094c.238.049.47.1.695.153l.44.11.215.057.418.12.403.125.391.132.38.137.186.071.365.147.18.076.355.156.349.162.345.167.513.263.17.09a18.395 18.395 0 0 1 7.649 7.658l.267.513.17.344.165.348.158.352.077.178.15.362.073.184.14.375.068.192.132.39.125.405.119.418c.02.07.038.142.057.215l.11.441c.053.225.104.457.153.696l.094.489c.046.249.089.506.13.772l.078.544c.025.185.05.375.072.569l.066.594.059.622.052.652.047.681.02.353.037.73.03.764.023.799.009.413.013.855.007.894v44.988l-.007.894-.013.855-.02.817-.027.782-.033.746-.019.361-.043.697-.05.667-.055.636-.062.608a35.4 35.4 0 0 1-.106.863l-.078.544c-.041.266-.084.523-.13.772l-.094.489c-.049.239-.1.47-.153.696l-.11.441-.057.215-.12.418-.124.404-.132.391-.137.38-.071.187-.147.366-.076.18-.155.355-.162.35-.167.345-.263.514-.09.17a18.395 18.395 0 0 1-7.648 7.658l-.513.267-.343.171-.347.165-.352.159-.178.077-.361.15-.184.073-.375.14a17.55 17.55 0 0 1-.191.068l-.39.132-.404.125-.418.12-.214.057-.441.11c-.225.053-.457.104-.695.153l-.488.094c-.25.046-.506.09-.772.13l-.543.078c-.185.026-.374.05-.568.073l-.594.065-.621.06-.65.052-.681.046c-.116.008-.234.014-.353.021l-.728.037-.763.03-.799.023-.412.009-.854.013-.893.007h-44.052l-.893-.007-.854-.013-.816-.02-.78-.027-.746-.033a62.965 62.965 0 0 1-.36-.019l-.697-.043-.665-.05-.636-.055-.608-.063a35.27 35.27 0 0 1-.861-.106l-.543-.078c-.266-.04-.523-.084-.772-.13l-.488-.094c-.238-.049-.47-.1-.695-.153l-.44-.11a19.56 19.56 0 0 1-.215-.057l-.418-.12-.403-.125-.391-.132-.38-.137a17.573 17.573 0 0 1-.186-.071l-.365-.147-.18-.076-.355-.156-.349-.162-.345-.167-.513-.263-.17-.09a18.395 18.395 0 0 1-7.649-7.658l-.267-.513-.17-.344-.165-.348-.158-.352-.077-.178-.15-.362a17.74 17.74 0 0 1-.073-.184l-.14-.375a17.6 17.6 0 0 1-.068-.192l-.132-.39-.125-.405-.119-.418c-.02-.07-.038-.142-.057-.215l-.11-.441a22.309 22.309 0 0 1-.153-.696l-.094-.489a27.52 27.52 0 0 1-.13-.772l-.078-.544c-.025-.185-.05-.375-.072-.569l-.066-.594-.059-.622-.052-.652-.047-.681a59.467 59.467 0 0 1-.02-.353l-.037-.73-.03-.764-.023-.799a91.842 91.842 0 0 1-.009-.413l-.013-.855-.007-.894v-44.988l.007-.894.013-.855.02-.817.027-.782.033-.746.019-.361.043-.697.05-.667.055-.636.062-.608c.033-.298.068-.585.106-.863l.078-.544c.041-.266.084-.523.13-.772l.094-.489c.049-.239.1-.47.153-.696l.11-.441.057-.215.12-.418.124-.404.132-.391.137-.38.071-.187.147-.366.076-.18.155-.355.162-.35.167-.345.263-.514.09-.17a18.395 18.395 0 0 1 7.648-7.658l.513-.267.343-.171.347-.165.352-.159.178-.077.361-.15.184-.073.375-.14.191-.068.39-.132.404-.125.418-.12.214-.057.441-.11c.225-.053.457-.104.695-.153l.488-.094c.25-.046.506-.09.772-.13l.543-.078c.185-.026.374-.05.568-.073l.594-.065.621-.06.65-.052.681-.046c.116-.008.234-.014.353-.021l.728-.037.763-.03.799-.023.412-.009.854-.013z" opacity=".2"/>
            <path d="M154.762 330h33.476c.973 0 1.762-.895 1.762-2s-.789-2-1.762-2h-33.476c-.973 0-1.762.895-1.762 2s.789 2 1.762 2zM205.73 361h14.54l.534-.005.246-.005.457-.019c1.082-.058 1.735-.201 2.283-.424l.214-.093.207-.101.103-.054a4.77 4.77 0 0 0 1.985-1.985l.054-.103.101-.207.093-.214c.223-.548.366-1.201.424-2.283l.019-.457.009-.507.001-.273v-21.54l-.005-.535a23.327 23.327 0 0 0-.005-.246l-.019-.457c-.058-1.082-.201-1.735-.424-2.283l-.093-.214-.101-.208a4.77 4.77 0 0 0-2.038-2.087l-.104-.054-.207-.101-.214-.094c-.511-.207-1.114-.346-2.072-.41l-.433-.024a20.165 20.165 0 0 0-.235-.008l-.506-.009h-15.088l-.506.01-.457.018c-1.01.054-1.646.182-2.172.38l-.219.089a4.986 4.986 0 0 0-.106.048l-.207.101a4.77 4.77 0 0 0-2.087 2.039l-.055.102-.101.208-.093.214a5.01 5.01 0 0 0-.288 1.016l-.05.316c-.03.222-.055.467-.073.74l-.023.433-.014.481-.004.26L199 354.27c0 .187.002.364.005.533l.014.482.023.433c.018.273.043.518.073.74l.05.316c.073.401.169.724.288 1.016l.093.214.101.207.054.103a4.77 4.77 0 0 0 1.985 1.985l.206.105c.069.034.139.067.21.098l.22.089c.487.183 1.07.307 1.96.367l.433.023.235.009.506.009.274.001zM154.762 337h33.476c.973 0 1.762.895 1.762 2s-.789 2-1.762 2h-33.476c-.973 0-1.762-.895-1.762-2s.789-2 1.762-2zM154.762 351h33.476c.973 0 1.762-.895 1.762-2s-.789-2-1.762-2h-33.476c-.973 0-1.762.895-1.762 2s.789 2 1.762 2zM154.762 358h33.476c.973 0 1.762.895 1.762 2s-.789 2-1.762 2h-33.476c-.973 0-1.762-.895-1.762-2s.789-2 1.762-2zM155.755 368h70.49c.97 0 1.755.895 1.755 2s-.786 2-1.755 2h-70.49c-.97 0-1.755-.895-1.755-2s.786-2 1.755-2zM155.755 379h70.49c.97 0 1.755.895 1.755 2s-.786 2-1.755 2h-70.49c-.97 0-1.755-.895-1.755-2s.786-2 1.755-2z" opacity=".7"/>
        </g>
        <g transform="translate(374 165)">
            <circle fill="#04CFD1" opacity=".112" cx="72" cy="72" r="72"/>
            <path stroke="#00808D" stroke-width="3" opacity=".29" stroke-linecap="round" d="m71.548 71.461 32.904-53.922M71.548 72.528 105 91"/>
        </g>
        <path stroke="#04CFD1" stroke-width="2" stroke-linecap="round" d="m258.5 79.5.5 90.5"/>
        <path d="M294.5 205.993c0-19.882-16.118-36-36-36s-36 16.118-36 36c36.387-.306 28.109-.091 72 0z" fill="#04CFD1"/>
        <g>
            <path d="M673.27 411.94c-2.375-35.329-8.332-49.637-17.872-42.926-9.841 9.223-.269 12.3 10.791 26.31 2.559 3.242 4.919 8.78 7.08 16.616z" fill="#DE2F00"/>
            <path d="M673 416c7.69-26.187 15.597-35.783 23.722-28.788 10.8 9.297-.872 9.297-12.616 17.465-2.716 1.89-6.418 5.664-11.106 11.323z" fill="#ED9B1C"/>
            <path d="M674.573 413.19c-2.514-34.958 1.708-49.584 12.667-43.877 8.78 4.572-.077 11.684-9.347 29.334-1.382 2.63-2.488 7.478-3.32 14.542z" fill="#00808D"/>
            <path d="M672.584 409.848c-13.445-24.085-24.188-32.201-32.23-24.348-6.354 6.206-1.572 11.002 17.414 15.777 3.102.78 8.04 3.637 14.816 8.57z" fill="#91BFF2"/>
            <path d="M656 408.41h34l-8.763 29.84h-17.075L656 408.41z" fill="#00808D"/>
        </g>
    </g>
</svg>
