<svg width="191" height="27" viewBox="0 0 191 27" xmlns="http://www.w3.org/2000/svg">
    <g fill="none" fill-rule="evenodd">
        <path d="m49.31 2.673 4.714 3.262c.25.172.656.172.905 0l.453-.313c.25-.173.25-.454 0-.627l-5.619-3.888a.852.852 0 0 0-.905 0l-5.62 3.888c-.248.173-.248.454 0 .627l.454.313c.25.172.655.172.905 0l4.714-3.262" fill="#28B4C2"/>
        <path d="M9.186 9.734H6.237V23.18c0 .132-.059.282-.177.452-.118.171-.295.256-.53.256h-.237c-.236 0-.412-.085-.53-.256-.118-.17-.177-.32-.177-.452V9.734h-2.95c-.13 0-.28-.052-.451-.157-.17-.105-.256-.288-.256-.55v-.315c0-.236.072-.413.216-.53a.754.754 0 0 1 .492-.178h7.549c.236 0 .406.073.51.217a.82.82 0 0 1 .158.491v.315c0 .21-.06.38-.177.511-.118.131-.282.196-.491.196M20.705 23.888h-.276a.687.687 0 0 1-.51-.197.687.687 0 0 1-.197-.51v-6.527h-5.898v6.526c0 .132-.059.282-.177.452-.117.171-.294.256-.53.256h-.315c-.236 0-.413-.065-.53-.197a.732.732 0 0 1-.177-.51V8.75a.81.81 0 0 1 .176-.53c.118-.144.295-.217.531-.217h.315c.288 0 .477.086.57.256.091.17.137.334.137.492v6.172h5.898V8.752a.88.88 0 0 1 .157-.531c.104-.144.288-.217.55-.217h.276c.261 0 .438.086.53.256.092.17.138.334.138.492V23.18a.847.847 0 0 1-.157.472c-.106.157-.275.236-.511.236M32.027 23.888h-6.29c-.21 0-.374-.065-.492-.197a.733.733 0 0 1-.177-.51V8.75a.88.88 0 0 1 .157-.53c.105-.144.276-.217.511-.217h6.291c.21 0 .374.066.492.197a.736.736 0 0 1 .176.511v.315c0 .236-.078.413-.236.53-.156.119-.301.177-.432.177H26.68v5.19h4.836c.13 0 .275.059.432.177.158.118.237.308.237.57v.275c0 .21-.06.38-.177.512-.119.13-.282.196-.492.196H26.68v5.504h5.347c.21 0 .374.066.492.197a.736.736 0 0 1 .176.51v.315c0 .236-.078.413-.236.531-.156.118-.301.177-.432.177M42.053 26.404c-.053.105-.21.157-.472.157h-5.819c-.262 0-.42-.052-.472-.157-.131-.078-.196-.131-.196-.157v-.983l.196-.118c.026-.078.183-.118.472-.118h5.819c.235 0 .393.04.472.118l.196.118v.983c0 .026-.066.079-.196.157M53.297 23.888h-.276a.686.686 0 0 1-.51-.197.688.688 0 0 1-.197-.51v-6.527h-5.898v6.526c0 .132-.059.282-.177.452-.118.171-.295.256-.53.256h-.315c-.236 0-.413-.065-.53-.197a.732.732 0 0 1-.178-.51V8.75c0-.209.06-.386.177-.53.118-.144.295-.217.531-.217h.315c.288 0 .477.086.57.256.091.17.137.334.137.492v6.172h5.898V8.752c0-.21.052-.387.157-.531.105-.144.288-.217.55-.217h.276c.261 0 .438.086.53.256.092.17.138.334.138.492V23.18a.85.85 0 0 1-.157.472c-.105.157-.275.236-.511.236M65.012 11.7c0-1.31-.564-1.966-1.69-1.966h-2.674c-1.127 0-1.69.656-1.69 1.966v8.453c0 1.337.563 2.005 1.69 2.005h2.674c1.126 0 1.69-.668 1.69-2.005V11.7zm-1.69 12.188h-2.674c-1.049 0-1.867-.32-2.457-.963-.59-.642-.885-1.553-.885-2.733V11.7c0-1.1.295-1.991.885-2.673.59-.682 1.408-1.023 2.457-1.023h2.674c1.048 0 1.873.341 2.476 1.023.603.682.905 1.572.905 2.673v8.492c0 1.18-.296 2.09-.885 2.733-.59.643-1.422.963-2.496.963zM75.47 23.888H73.07c-1.048 0-1.867-.32-2.457-.963-.59-.642-.885-1.553-.885-2.733V8.752c0-.131.046-.288.138-.473.092-.182.281-.275.57-.275h.236c.288 0 .478.093.57.275.092.185.138.342.138.473v11.401c0 1.337.563 2.005 1.69 2.005h2.399c1.1 0 1.65-.668 1.65-2.005V8.752c0-.21.06-.387.178-.531.118-.144.295-.217.53-.217h.315c.236 0 .406.073.511.217a.82.82 0 0 1 .157.491v11.48c0 1.18-.294 2.09-.884 2.733-.59.643-1.41.963-2.457.963M87.578 23.888h-2.555c-1.075 0-1.907-.32-2.496-.963-.59-.642-.886-1.553-.886-2.733v-.904c0-.524.223-.786.67-.786h.353c.236 0 .406.079.511.236.105.157.157.34.157.55v.865c0 1.337.564 2.005 1.691 2.005h2.555c1.127 0 1.691-.668 1.691-2.005v-1.1c0-.498-.203-.931-.61-1.298-.406-.367-.962-.629-1.67-.786-.525-.131-1.095-.276-1.71-.433a8.26 8.26 0 0 1-1.73-.649 4.21 4.21 0 0 1-1.356-1.081c-.368-.445-.552-1.022-.552-1.73V11.7c0-1.1.302-1.991.905-2.673.602-.682 1.429-1.023 2.477-1.023h2.555c1.048 0 1.868.341 2.458 1.023.59.682.885 1.572.885 2.673v.629c0 .21-.053.4-.158.57-.105.17-.275.256-.51.256h-.276c-.472 0-.708-.275-.708-.826V11.7c0-1.31-.564-1.966-1.69-1.966h-2.556c-1.127 0-1.69.656-1.69 1.966v1.337c0 .367.157.714.471 1.042.315.328.904.583 1.77.766.602.132 1.192.27 1.769.413.576.145 1.14.374 1.69.688.524.289.97.675 1.337 1.16.367.485.55 1.108.55 1.868v1.218c0 1.18-.288 2.09-.865 2.733-.577.643-1.402.963-2.477.963M101.024 23.888h-6.29c-.21 0-.374-.065-.492-.197a.733.733 0 0 1-.176-.51V8.75a.88.88 0 0 1 .157-.53c.104-.144.275-.217.51-.217h6.291c.21 0 .374.066.492.197a.737.737 0 0 1 .177.511v.315c0 .236-.079.413-.236.53-.158.119-.302.177-.433.177h-5.346v5.19h4.835c.13 0 .275.059.433.177.157.118.236.308.236.57v.275c0 .21-.06.38-.177.512-.118.13-.282.196-.492.196h-4.835v5.504h5.346c.21 0 .374.066.492.197a.737.737 0 0 1 .177.51v.315c0 .236-.079.413-.236.531-.158.118-.302.177-.433.177M111.05 26.404c-.053.105-.21.157-.472.157h-5.818c-.263 0-.42-.052-.472-.157-.132-.078-.197-.131-.197-.157v-.983l.197-.118c.026-.078.183-.118.472-.118h5.818c.236 0 .393.04.472.118l.196.118v.983c0 .026-.066.079-.196.157M121.193 11.7c0-1.31-.564-1.966-1.69-1.966h-2.674c-1.128 0-1.69.656-1.69 1.966v8.453c0 1.337.562 2.005 1.69 2.005h2.673c1.127 0 1.69-.668 1.69-2.005V11.7zm-1.69 12.188h-2.674c-1.049 0-1.867-.32-2.457-.963-.59-.642-.885-1.553-.885-2.733V11.7c0-1.1.295-1.991.885-2.673.59-.682 1.408-1.023 2.457-1.023h2.673c1.048 0 1.874.341 2.477 1.023.603.682.904 1.572.904 2.673v8.492c0 1.18-.295 2.09-.884 2.733-.59.643-1.422.963-2.497.963zM132.987 9.734h-5.347v5.426h4.797c.13 0 .275.059.432.177a.579.579 0 0 1 .236.491v.276c0 .288-.078.485-.236.59-.157.104-.302.156-.432.156h-4.797v6.33a.85.85 0 0 1-.157.472c-.105.157-.275.236-.51.236h-.276c-.237 0-.413-.065-.531-.197a.733.733 0 0 1-.177-.51V8.75c0-.183.059-.353.177-.51.118-.158.294-.237.53-.237h6.291c.21 0 .373.066.492.197a.737.737 0 0 1 .177.511v.315c0 .236-.08.413-.236.53-.158.119-.302.177-.433.177M142.659 26.404c-.054.105-.21.157-.472.157h-5.82c-.261 0-.419-.052-.471-.157-.132-.078-.196-.131-.196-.157v-.983l.196-.118c.026-.078.183-.118.472-.118h5.819c.235 0 .393.04.472.118l.196.118v.983c0 .026-.066.079-.196.157M151.347 23.888h-2.792c-1.074 0-1.906-.32-2.496-.963-.59-.642-.885-1.553-.885-2.733V11.7c0-1.1.301-1.991.904-2.673.603-.682 1.428-1.023 2.477-1.023h2.792c1.048 0 1.867.341 2.456 1.023.59.682.886 1.572.886 2.673v1.061c0 .184-.046.368-.138.551-.092.184-.269.276-.53.276h-.276c-.262 0-.446-.085-.55-.256a1.065 1.065 0 0 1-.157-.57V11.7c0-1.31-.564-1.966-1.691-1.966h-2.792c-1.127 0-1.69.656-1.69 1.966v8.453c0 1.337.563 2.005 1.69 2.005h2.792c1.127 0 1.69-.668 1.69-2.005v-1.062c0-.497.236-.747.708-.747h.275c.236 0 .406.086.511.256.105.17.158.334.158.491v1.101c0 1.18-.29 2.09-.865 2.733-.577.643-1.403.963-2.477.963M165.264 11.7c0-1.31-.564-1.966-1.69-1.966H160.9c-1.128 0-1.69.656-1.69 1.966v8.453c0 1.337.562 2.005 1.69 2.005h2.673c1.127 0 1.69-.668 1.69-2.005V11.7zm-1.69 12.188H160.9c-1.049 0-1.867-.32-2.457-.963-.59-.642-.885-1.553-.885-2.733V11.7c0-1.1.295-1.991.885-2.673.59-.682 1.408-1.023 2.457-1.023h2.673c1.048 0 1.874.341 2.477 1.023.603.682.905 1.572.905 2.673v8.492c0 1.18-.295 2.09-.885 2.733-.59.643-1.423.963-2.497.963zM177.884 11.7c0-1.31-.564-1.966-1.69-1.966h-4.247v12.424h4.247c1.126 0 1.69-.668 1.69-2.005V11.7zm-1.69 12.188h-5.269c-.21 0-.373-.065-.491-.197a.733.733 0 0 1-.177-.51V8.75c0-.497.222-.747.668-.747h5.269c1.048 0 1.867.341 2.456 1.023.59.682.885 1.572.885 2.673v8.492c0 1.18-.29 2.09-.864 2.733-.577.643-1.404.963-2.477.963zM190.15 23.888h-6.29c-.21 0-.374-.065-.493-.197a.735.735 0 0 1-.176-.51V8.75a.88.88 0 0 1 .157-.53c.105-.144.275-.217.511-.217h6.29c.21 0 .374.066.492.197a.736.736 0 0 1 .177.511v.315c0 .236-.079.413-.235.53-.158.119-.302.177-.434.177h-5.346v5.19h4.835c.131 0 .276.059.433.177.157.118.237.308.237.57v.275c0 .21-.06.38-.178.512-.118.13-.282.196-.492.196h-4.835v5.504h5.346c.21 0 .374.066.492.197a.736.736 0 0 1 .177.51v.315c0 .236-.079.413-.235.531-.158.118-.302.177-.434.177" fill="#1D1F26"/>
    </g>
</svg>
